<svg xmlns="http://www.w3.org/2000/svg" viewBox="0 0 466.02 466.02"><defs><style>.cls-1{fill:#fff;}.cls-2{fill:#060706;}</style></defs><title>Logo - Abhilasha</title><g id="Layer_2" data-name="Layer 2"><g id="Layer_1-2" data-name="Layer 1"><path class="cls-1" d="M466,233c0,10.22-4.65,20-5.94,29.9-1.31,10.1.63,20.77-1.95,30.42-2.62,9.81-9.65,18.09-13.49,27.34s-4.78,20.17-9.8,28.86-14,14.92-20.13,22.9-9.81,18.22-16.94,25.34-17.34,10.79-25.35,16.94-14.14,15.06-22.89,20.13-19.5,5.92-28.86,9.8-17.53,10.87-27.34,13.49c-9.65,2.58-20.32.64-30.42,1.95C253,461.37,243.23,466,233,466s-20-4.65-29.9-5.94c-10.1-1.31-20.78.63-30.42-1.95-9.82-2.62-18.09-9.65-27.34-13.49s-20.17-4.78-28.86-9.8-14.92-14-22.9-20.13-18.22-9.81-25.34-16.94-10.79-17.34-16.94-25.35-15.07-14.14-20.13-22.89-5.92-19.5-9.8-28.86-10.87-17.53-13.5-27.34c-2.57-9.65-.63-20.32-1.95-30.42C4.65,253,0,243.23,0,233s4.65-20,5.93-29.9c1.32-10.1-.62-20.78,2-30.42,2.63-9.82,9.66-18.09,13.5-27.34s4.78-20.17,9.8-28.86,14-14.92,20.13-22.9,9.81-18.22,16.94-25.34S85.59,57.46,93.59,51.31s14.15-15.07,22.9-20.13,19.5-5.92,28.86-9.8,17.52-10.87,27.34-13.5c9.64-2.57,20.32-.63,30.42-1.95C213,4.65,222.79,0,233,0s20,4.65,29.9,5.93c10.1,1.32,20.77-.62,30.42,2,9.81,2.63,18.09,9.66,27.34,13.5s20.17,4.78,28.86,9.8,14.92,14,22.9,20.13,18.22,9.81,25.34,16.94,10.79,17.34,16.94,25.34,15.06,14.15,20.13,22.9,5.92,19.5,9.8,28.86,10.87,17.52,13.49,27.34c2.58,9.64.64,20.32,1.95,30.42C461.37,213,466,222.79,466,233Z"/><path class="cls-2" d="M171.85,385.12l3.26,1.89-4.56,5.21-11.81-5.28.73-6.81,3.55,1.08.87-2-10.72-4.71-.87,2,2.39,1.45-2.54,32.37,4.42,1.95,22.16-23.68,2.68.73.87-2-9.56-4.27ZM159,405.48l-2.61,3.18.58-4,1.52-15,10.36,4.56Z"/><path class="cls-2" d="M148,370.64c-.36-.29-1.52-1.08-3.33-2.46-.8-.58-1.59-1.23-2.46-1.81-4.06-2.75-7.46-4-10.28-3.55a9.35,9.35,0,0,0-6.74,4.2A7.17,7.17,0,0,0,124,373.1c.51,2,2,3.84,4.42,5.44a7.94,7.94,0,0,0-10.28,3,6.3,6.3,0,0,0-1,6.09q1.1,3,6.09,6.52c.58.36,1.52.94,2.75,1.59,1.3.8,2.39,1.45,3.19,2l5,3.4,1.23-1.81-2.67-2.53,15.56-22.74,3.26,1.73L152.8,374Zm-19.41,24-.79-.5a26.38,26.38,0,0,1-2.83-1.67c-2.1-1.45-3.33-2.9-3.69-4.27a5.71,5.71,0,0,1,1.23-4.64,7,7,0,0,1,4.13-3.18,6.07,6.07,0,0,1,4.85,1.23l2,1.37c1,.73,1.74,1.23,2,1.45ZM137,382.16c-.65-.37-2.25-1.45-4.78-3.12-2.1-1.45-3.41-3-3.77-4.49s.07-3.18,1.38-5.07a7,7,0,0,1,4.63-3.26c1.81-.21,3.91.51,6.38,2.18a18,18,0,0,1,3.62,2.89Z"/><polygon class="cls-2" points="124.06 356.52 126.88 358.76 128.4 357.24 119.93 348.55 118.41 350 120.72 353.12 111.53 362.1 100.66 350.94 109.86 341.89 112.76 344.21 114.28 342.69 105.95 334.14 104.43 335.66 106.53 338.49 86.76 357.68 83.93 355.58 82.34 357.1 90.67 365.64 92.26 364.05 90.09 361.15 98.64 352.83 109.5 363.98 100.95 372.31 97.91 369.99 96.39 371.51 104.79 380.13 106.31 378.61 104.28 375.71 124.06 356.52"/><polygon class="cls-2" points="99.65 328.78 102.33 331.9 104.07 330.67 96.68 320.02 94.94 321.18 96.9 324.87 74.23 340.59 71.48 337.55 69.67 338.78 77.06 349.5 78.94 348.19 76.98 344.57 99.65 328.78"/><polygon class="cls-2" points="90.31 314.66 92.33 317.7 94.29 316.76 83.64 295.69 73.94 298.88 74.81 301.41 82.63 300.39 88.13 310.39 63.58 322.92 61.12 319.22 59.17 320.24 64.89 331.54 66.84 330.52 65.68 327.12 90.31 314.66"/><path class="cls-2" d="M80.82,295.54l2.1-.58-3-10.06-2.1.58.72,3.83-6.88-.14-3.76-12.38,5.72-3.91,1.45,3.4,2.1-.58-3.41-11.22-2,.57.36,2.83L45.84,286.93l1.38,4.7,32.37,1.45ZM54,289l-4.13.15,3.41-2.17,12.38-8.62,3.26,10.86Z"/><path class="cls-2" d="M49.32,265.63a7.87,7.87,0,0,0,4.42-1.88,10.33,10.33,0,0,0,2.67-3.55,34.21,34.21,0,0,0,1.74-4.56q.87-2.82,1.52-4.56a9.79,9.79,0,0,1,1.81-2.76,5.52,5.52,0,0,1,7.17-.07,7.39,7.39,0,0,1,2.1,4.93,10.68,10.68,0,0,1-.07,3.76,5.69,5.69,0,0,1-.94,2.61L64.09,261l.36,2.82,8-.58a9.27,9.27,0,0,1,.29-2.1,29.66,29.66,0,0,0,.58-4.05,16.5,16.5,0,0,0-.07-4.13,13.55,13.55,0,0,0-2.18-6.3,10.15,10.15,0,0,0-4-3.55,8.77,8.77,0,0,0-4.63-.72,7.1,7.1,0,0,0-4.13,1.81,12.49,12.49,0,0,0-2.54,3.4c-.58,1.31-1.16,3-1.88,5s-1.3,3.76-1.74,4.78A8.17,8.17,0,0,1,50.4,260a4.7,4.7,0,0,1-2.82,1.3,4.84,4.84,0,0,1-3.91-1.16,7.16,7.16,0,0,1-1.81-4.42,10.8,10.8,0,0,1,0-3.11,4.56,4.56,0,0,1,.65-1.88l5.29-1.53-.29-2.67-7.46.57a7.19,7.19,0,0,1-.22,1.6c-.14,1.3-.29,2.53-.36,3.62a15.36,15.36,0,0,0,.07,3.62,14.12,14.12,0,0,0,1.81,5.58,8.45,8.45,0,0,0,3.48,3.33A7.35,7.35,0,0,0,49.32,265.63Z"/><polygon class="cls-2" points="40.92 232.68 68.44 234.57 68.65 238.11 70.83 238.26 71.62 226.09 69.45 225.95 68.73 229.79 55.91 228.92 56.92 213.35 69.81 214.22 70.03 217.91 72.13 218.05 73 206.18 70.83 206.03 70.1 209.44 42.58 207.63 42.29 204.08 40.12 203.93 39.32 215.81 41.5 215.95 42.29 212.41 54.17 213.2 53.16 228.77 41.28 227.97 40.99 224.14 38.74 223.99 37.95 236.01 40.19 236.16 40.92 232.68"/><path class="cls-2" d="M71,204.87l2.1.58,2.83-10.14-2.1-.57-1.45,3.54-5.8-3.69L70,182.06l6.88-.22-.58,3.63,2.1.57,3.11-11.22-2.1-.58-1.15,2.54L45.91,179l-1.23,4.71,26.58,18.39ZM51.71,185l-3.55-2.1,4.06-.07,15.06-.65-3,10.86Z"/><polygon class="cls-2" points="59.89 148.53 90.6 156.64 92.84 153.09 77.49 135.71 99.94 141.8 102.18 138.1 81.11 114.5 82.27 111.74 80.39 110.58 74.74 119.49 76.62 120.65 79.44 117.25 93.93 132.96 98.92 137.52 92.48 135.28 71.84 129.34 73.65 125.43 71.77 124.2 65.18 134.77 67.06 135.93 69.16 133.54 73 134.56 84.58 147.81 89.08 152.37 83.14 150.2 62.42 144.33 64.16 140.57 62.35 139.34 55.91 149.55 57.79 150.71 59.89 148.53"/><path class="cls-2" d="M97.26,117.46a22.69,22.69,0,0,0,7.31,5.15,13,13,0,0,0,7.53.79,13.82,13.82,0,0,0,6.88-3.91,15.24,15.24,0,0,0,3.92-6.95,15.64,15.64,0,0,0-.44-8.11,19.37,19.37,0,0,0-5.07-7.82c-3.62-3.7-7.31-5.65-11.08-6S99,91.76,95.74,94.94a13.78,13.78,0,0,0-3.91,6.88,15,15,0,0,0,.43,8A20,20,0,0,0,97.26,117.46Zm-.07-20.64a7.38,7.38,0,0,1,7.38-2.17c2.9.65,5.94,2.54,9.13,5.72,3.33,3.41,5.36,6.59,6,9.64a7.7,7.7,0,0,1-2,7.45,7.55,7.55,0,0,1-7.53,2c-3-.65-6-2.61-9.2-5.72-3.4-3.4-5.36-6.59-5.94-9.56A7.71,7.71,0,0,1,97.19,96.82Z"/><polygon class="cls-2" points="119.2 78.21 131.08 103.27 128.11 105.66 129.27 107.47 139.05 101.39 137.89 99.5 133.98 101.46 124.92 83.64 121.01 75.97 127.68 81.69 144.98 95.88 147.45 94.36 141.44 70.75 139.7 64.38 144.98 71.12 157.22 86.98 154.04 89.44 155.19 91.32 165.99 84.51 164.83 82.7 161.35 84.37 143.75 62.86 147.59 59.82 146.43 57.94 136.51 64.16 141.87 84.37 143.68 89.8 139.48 85.82 123.62 72.2 113.63 78.43 114.78 80.31 119.2 78.21"/><polygon class="cls-2" points="160.99 55.26 170.19 81.25 166.85 82.85 167.58 84.95 190.75 76.77 189.38 69.02 186.7 69.16 186.33 75.17 174.68 79.81 170.26 67.35 177.28 64.96 179.16 68.36 181.48 67.57 178.08 57.94 175.76 58.73 176.41 62.43 169.46 65.03 165.33 53.23 175.76 49.83 178.37 53.45 180.76 52.65 177.93 46.35 156.64 53.88 157.37 55.98 160.99 55.26"/><polygon class="cls-2" points="193.14 45.26 197.13 72.49 193.65 73.43 194.01 75.61 204.66 74.01 204.37 71.91 200.09 72.06 196.4 47 200.68 52.29 218.78 71.98 222.25 71.48 217.84 41.57 221.24 40.55 220.95 38.38 210.6 39.9 210.88 42.08 214.8 42.08 218.27 65.39 215.09 61.05 197.34 41.86 189.23 43.02 189.52 45.19 193.14 45.26"/><polygon class="cls-2" points="235.72 51.42 236.96 35.05 232.25 34.98 232.83 51.42 235.72 51.42"/><path class="cls-2" d="M250.06,72.56a27.31,27.31,0,0,0,4.06,1,14.26,14.26,0,0,0,6.66-.58,9.84,9.84,0,0,0,4.42-3,9.26,9.26,0,0,0,1.88-4.35,7.56,7.56,0,0,0-.72-4.42,11.06,11.06,0,0,0-2.75-3.25,51.38,51.38,0,0,0-4.35-3.12Q256.44,53,255.13,52a9.36,9.36,0,0,1-2.1-2.39,4.81,4.81,0,0,1-.58-3,4.63,4.63,0,0,1,2.1-3.48,6.79,6.79,0,0,1,4.71-.65,9.4,9.4,0,0,1,3,.79A4.6,4.6,0,0,1,264,44.32l.14,5.5,2.68.37L268,42.8a6.49,6.49,0,0,1-1.44-.58c-1.24-.51-2.39-.94-3.41-1.3a19.34,19.34,0,0,0-3.55-.8,14.22,14.22,0,0,0-5.86.36A9.29,9.29,0,0,0,249.63,43a7.7,7.7,0,0,0-1.81,4.12,7.49,7.49,0,0,0,.72,4.78,11,11,0,0,0,2.75,3.48,33.1,33.1,0,0,0,4,2.83c1.66,1,3,1.88,4,2.6a8.15,8.15,0,0,1,2.25,2.46,4.83,4.83,0,0,1,.58,3.05,5.51,5.51,0,0,1-2.32,3.91c-1.31.87-3,1.08-5.29.79a11.48,11.48,0,0,1-3.62-1,5.71,5.71,0,0,1-2.24-1.59v-5.8l-2.83-.36-1.45,7.89a9,9,0,0,1,2,.8C247.67,71.62,248.91,72.13,250.06,72.56Z"/><polygon class="cls-2" points="291.27 82.56 306.12 64.81 303.51 87.84 307.49 89.58 327.7 65.18 330.59 65.9 331.46 63.87 321.83 59.67 320.89 61.7 324.73 63.95 311.4 80.6 307.64 86.25 308.87 79.52 311.62 58.23 315.82 59.46 316.69 57.43 305.25 52.5 304.38 54.53 307.06 56.27 306.62 60.18 295.25 73.65 291.49 78.72 292.72 72.56 295.4 51.2 299.38 52.36 300.32 50.33 289.24 45.55 288.37 47.58 290.84 49.24 287.43 80.89 291.27 82.56"/><polygon class="cls-2" points="322.41 95.16 319.15 93.35 317.92 95.16 337.76 109.57 343.34 104.14 341.75 101.89 336.53 105.08 326.18 98.06 333.93 87.41 339.86 91.83 338.13 95.3 340.08 96.75 346.09 88.5 344.14 87.05 341.46 89.66 335.37 85.45 342.69 75.32 351.45 81.98 349.93 86.25 352.03 87.7 355.58 81.76 337.33 68.51 336.02 70.32 338.63 72.85 322.41 95.16"/><polygon class="cls-2" points="344.93 112.76 342.04 110.44 340.44 111.96 356.95 128.83 365.21 122.97 363.62 120.72 356.45 124.06 348.19 116.16 367.96 96.9 371.44 99.72 373.03 98.13 364.12 89.08 362.53 90.6 364.63 93.49 344.93 112.76"/><polygon class="cls-2" points="361.08 130.5 359.27 131.73 367.96 144.26 369.77 143.03 366.15 137.09 376.58 129.85 381 136.58 378.25 139.41 379.55 141.29 388.1 135.42 386.79 133.47 383.32 134.92 378.61 128.4 389.18 121.08 395.41 130.64 392.15 134.56 393.82 136.94 399.75 132.24 386.21 112.76 384.4 114.06 386.14 117.47 363.47 133.18 361.08 130.5"/><path class="cls-2" d="M375.13,150.34l-1.95.87,4.41,9.56,2-.94-1.16-3.62,6.81-.87,5.43,11.8-5.14,4.64-1.89-3.19-2,.94,4.92,10.58,2-.87-.73-2.68L411,154l-2-4.41-32.22,3Zm27.59,2.75,4.06-.72-3.12,2.68-11,10.21L387.88,155Z"/><path class="cls-2" d="M389.9,183.66l-1.3-3.48-2.1.51,3,12.45,2.18-.51-.66-4.41,11.52-2.83c.07.58.58,2.39,1.3,5.43a6.18,6.18,0,0,1-1.95,2.9c-1.16,1.09-2.76,2.46-4.78,4.06-1.81,1.45-3.12,2.6-4,3.4s-1.23,1.45-1.08,2l1.45,5.93,2.1-.58.07-1.73c-.07-.51.22-1,.87-1.67s1.66-1.66,3-3a55.9,55.9,0,0,0,4.2-4.13,6.77,6.77,0,0,0,1.88-3.18,9,9,0,0,0,4.64,3.84,10.69,10.69,0,0,0,6,.29c2.89-.73,4.85-2.18,5.72-4.28s.87-5.36-.22-9.56c-.14-.79-.51-1.88-.94-3.33a27.76,27.76,0,0,1-1-3.18l-1.45-5.65-2.1.5.29,3.55Zm28.68-1.09a19.9,19.9,0,0,1,.87,2.68c.65,2.68.58,4.63-.29,6a7,7,0,0,1-4.34,2.82c-2.39.58-4.35.51-5.8-.29a5.47,5.47,0,0,1-2.89-3.91l-.58-2.39c-.37-1.37-.58-2.24-.65-2.68l13.32-3.33C418.29,181.63,418.37,182,418.58,182.57Z"/><polygon class="cls-2" points="395.63 210.16 393.45 210.31 395.05 234.85 402.8 235.58 403.45 232.97 397.73 230.94 396.42 218.56 409.6 217.69 409.97 225.08 406.2 225.95 406.35 228.34 416.56 227.69 416.41 225.3 412.64 224.93 412.06 217.55 424.52 216.75 424.96 227.69 420.76 229.28 420.9 231.81 427.71 230.73 426.33 208.21 424.09 208.35 423.8 212.04 396.28 213.78 395.63 210.16"/><path class="cls-2" d="M422.57,255.86a8.44,8.44,0,0,0-8.91-1.38,10.63,10.63,0,0,0-3.55,2.61,30.1,30.1,0,0,0-2.9,3.91,41.12,41.12,0,0,1-2.82,3.91,8.55,8.55,0,0,1-2.46,2.17,5.59,5.59,0,0,1-3.12.44,5.28,5.28,0,0,1-3.84-2.39,7.82,7.82,0,0,1-.65-5.29,12.42,12.42,0,0,1,1.16-3.62,7.79,7.79,0,0,1,1.67-2.25l5.79.22.51-2.82-7.9-1.67a6.9,6.9,0,0,1-.79,1.88,31.82,31.82,0,0,0-1.74,3.77,23.65,23.65,0,0,0-1.09,4,14.39,14.39,0,0,0,.36,6.67,9.29,9.29,0,0,0,2.83,4.49,8,8,0,0,0,4.27,2,6.94,6.94,0,0,0,4.42-.58,11,11,0,0,0,3.4-2.6c.87-1.09,2-2.47,3.19-4.2a43.92,43.92,0,0,1,3-4.06,7.94,7.94,0,0,1,2.39-2,4.3,4.3,0,0,1,3-.43,4.5,4.5,0,0,1,3.48,2.1,7.8,7.8,0,0,1,.51,4.78,11.76,11.76,0,0,1-.95,3,4.18,4.18,0,0,1-1.08,1.66h-5.58l-.43,2.68,7.31,1.45a12.58,12.58,0,0,1,.65-1.45c.58-1.23,1-2.39,1.45-3.33a19.83,19.83,0,0,0,.87-3.55,14.43,14.43,0,0,0-.14-5.86A9.61,9.61,0,0,0,422.57,255.86Z"/><path class="cls-2" d="M413.3,283.67a20.52,20.52,0,0,0-7.82-4.78,23,23,0,0,0-8.77-1.45,13.27,13.27,0,0,0-7.17,2.46,14.09,14.09,0,0,0-4.49,6.52,14.37,14.37,0,0,0-.58,8,15.46,15.46,0,0,0,4,7.16,20,20,0,0,0,7.89,4.86q7.27,2.59,12.6.65c3.55-1.38,6.09-4.2,7.68-8.55a14.24,14.24,0,0,0-3.33-14.84Zm1.23,13.83a7.63,7.63,0,0,1-5.8,5.14c-2.89.65-6.44.29-10.64-1.23-4.56-1.59-7.75-3.62-9.63-6.08A7.87,7.87,0,0,1,393,282.58c3-.65,6.52-.22,10.72,1.3,4.56,1.6,7.67,3.55,9.48,5.94A7.85,7.85,0,0,1,414.53,297.5Z"/><path class="cls-2" d="M393.82,310.75a21.27,21.27,0,0,0-8.69-2.9,12.66,12.66,0,0,0-7.68,1.53,15.82,15.82,0,0,0-6,6.15,25.18,25.18,0,0,0-1.59,3.33c-.29.94-.58,2-.87,3a19.55,19.55,0,0,1-.8,2.76l4.85,4,1.74-2.24-2.83-3.77a5.71,5.71,0,0,1,.08-2.46,12.68,12.68,0,0,1,1.45-3.33,7.84,7.84,0,0,1,4.56-3.84,11.73,11.73,0,0,1,6.37-.22,25,25,0,0,1,7.1,2.83,21.82,21.82,0,0,1,5.94,4.92,10,10,0,0,1,2.31,5.36,8.31,8.31,0,0,1-1.08,5.21,18.15,18.15,0,0,1-2.18,3,5.09,5.09,0,0,1-1.88,1.38l-5.43-1.81-1.52,2.53,6.74,4.35.94-1.09a34.06,34.06,0,0,0,5-6.59,15.84,15.84,0,0,0,2.32-8.11,15.38,15.38,0,0,0-2.32-7.89A18.67,18.67,0,0,0,393.82,310.75Z"/><polygon class="cls-2" points="385.49 349.42 363.76 332.4 365.94 328.93 364.27 327.55 356.23 337.76 357.9 339.14 360.87 336.17 382.52 353.19 380.42 356.74 382.16 358.11 390.19 347.83 388.46 346.45 385.49 349.42"/><polygon class="cls-2" points="372.24 365.28 353.12 345.37 355.43 342.54 353.91 340.95 336.24 358.04 340.66 364.49 343.05 363.25 340.88 357.61 349.57 348.63 358.76 358.11 353.33 363.11 350.22 360.79 348.48 362.53 355.51 369.85 357.32 368.18 355.22 365.06 360.43 359.85 369.12 368.9 361.01 376.29 357.1 374.12 355.29 375.86 360.5 380.35 376.73 364.7 375.2 363.11 372.24 365.28"/><polygon class="cls-2" points="343.92 378.68 347.76 387.23 341.6 391.64 326.03 368.4 330.59 364.85 329.44 363.04 315.31 372.45 316.55 374.26 321.98 371.15 337.55 394.4 330.96 398.38 324.66 391.5 322.34 393.09 329.36 402.65 352.32 387.37 346.38 377.01 343.92 378.68"/><polygon class="cls-2" points="320.6 404.1 304.52 392.22 300.47 382.88 304.74 380.49 303.87 378.54 290.33 384.4 291.2 386.36 295.98 384.84 300.03 394.18 298.44 413.8 296.05 415.4 296.92 417.43 306.19 413.44 305.25 411.41 301.77 412.36 302.42 399.1 302.5 395.41 305.18 397.87 315.6 406.27 312.63 408.15 313.5 410.25 324.15 405.62 323.21 403.59 320.6 404.1"/><path class="cls-2" d="M233.05,81.47A151.54,151.54,0,1,0,384.62,233.05,151.57,151.57,0,0,0,233.05,81.47Zm0,296.78c-80.1,0-145.21-65.18-145.21-145.2S153,87.77,233.05,87.77,378.25,153,378.25,233.05,313.14,378.25,233.05,378.25Z"/><path class="cls-2" d="M233.05,21.44c-116.89,0-211.61,94.72-211.61,211.61s94.72,211.53,211.61,211.53,211.6-94.72,211.6-211.53S349.93,21.44,233.05,21.44Zm0,416.84c-113.2,0-205.24-92.12-205.24-205.23s92-205.31,205.24-205.31,205.23,92.11,205.23,205.31S346.24,438.28,233.05,438.28Z"/><circle class="cls-2" cx="233.05" cy="412.28" r="17.51"/><circle class="cls-2" cx="269.95" cy="406.47" r="9.41"/><path class="cls-2" d="M196.14,397.05a9.42,9.42,0,1,0,9.41,9.42A9.41,9.41,0,0,0,196.14,397.05Z"/><path class="cls-2" d="M262.75,222.29,274.56,234h12.25a10.06,10.06,0,0,0-2.4,6.18V280.1c-3.48-1.72-9.52-3.81-18.27-3.81-1,0-2.14,0-3.26,0a66.25,66.25,0,0,0-5.18-7.65,56.77,56.77,0,0,0-21.16-16.5,50,50,0,0,0-8.3-2.86C240,243.17,249.8,236,257.33,228c7.92-8.37,13.48-17.92,16.05-27.61,4.64-17.44.56-35-10.93-47,0,0-.3-.3-.74-.78l-1.43-1.36c-.08-.06-.13-.12-.3-.28-1-.87-2.36-2-4-3.22l-.34-.23h0a76.57,76.57,0,0,0-31-13.43,49.52,49.52,0,0,0-6.57-1c-11.9-1.06-24.43,1.7-36.21,8C127.75,170.4,156.71,227.42,157,228l.15.3,14.68,8.2-2.13-3.58a77.08,77.08,0,0,1-7.38-34.37c.68-21.19,13.57-48.52,47.61-55.8,1.72-.35,3.62-.66,5.48-.93a65.1,65.1,0,0,1,7-.65,44.35,44.35,0,0,1,17.17,3c9.46,4,16.59,12.25,20.6,23.92a46.57,46.57,0,0,1-.44,27.85c-6.92,21.13-24.83,37.38-54.76,49.67a48.87,48.87,0,0,0-25.61,9.17l-1.22,1,11.64,7.49.47-.11A189.94,189.94,0,0,0,218.12,254a75.42,75.42,0,0,1,16.82,3.25,16.75,16.75,0,0,1,5.72,3,34.59,34.59,0,0,1,11.55,17.3c-22.51,4.4-36.8,19.9-39.34,33.19-1.28,6.68.53,12.08,4.87,14.74l.31.24a98.26,98.26,0,0,0,10.8,6.1,16.8,16.8,0,0,0,7.24,1.28,29,29,0,0,0,6.54-.7c12.56-2.69,23.61-18.33,24.62-34.85a40.72,40.72,0,0,0-.94-12.17,78.53,78.53,0,0,1,18.1-.48c-.09,18.66-.09,36.08-.09,36.08v.53l12.25,10.06V252.19c0-.1-.41-10,4.49-15.11a10.18,10.18,0,0,1,7.67-3.08h2.81l-12.38-11.71Zm-11.3,81.28c-4.8,12.61-15.45,21.75-25.13,21.75h-.45c-1.6-2.76-1.86-6.06-.77-9.81,2.71-9.27,13.67-20.09,26.11-25.74a27,27,0,0,1,2.75-1.18A43.41,43.41,0,0,1,251.45,303.57Z"/></g></g></svg>